<svg width="32" height="26" viewBox="0 0 32 26" fill="none" xmlns="http://www.w3.org/2000/svg">
<path d="M26.6137 10.5272C20.8521 10.5272 27.4701 6.72484 26.6137 10.5272ZM26.6137 10.5272C27.1055 6.85286 23.3315 1.01205 27.1055 4.54896M26.6137 10.5272C20.8552 9.38747 24.8861 11.4314 24.8861 6.03178C24.8861 0.632182 30.8796 8.08591 27.1055 4.54896M26.6137 10.5272C27.4701 6.72484 22.8397 14.0641 26.6137 10.5272ZM26.6137 10.5272C20.8521 10.5272 29.0475 9.5687 25.2734 6.03178M26.6137 10.5272C24.1465 6.84409 28.0927 -0.507664 28.0927 4.89193C28.0927 10.2915 21.4994 2.49486 25.2734 6.03178M26.6137 10.5272C23.5221 7.62976 30.0179 10.4505 30.0179 6.03178C10.5977 8.51378 26.9263 9.57927 30.0179 6.68184M26.6137 10.5272C27.1055 10.0232 40.0244 -13.4016 13.7875 18.7778C24.7816 6.63975 24.6078 9.26538 23.8638 6.60679M27.1055 4.54896L27.4348 5.91022M25.2734 6.03178L27.9924 5.87903M30.0179 6.68184C33.1096 3.78445 25.3029 6.68184 30.0179 6.68184ZM30.0179 6.68184C34.7329 6.68184 20.7721 3.7094 23.8638 6.60679M23.8638 6.60679C26.9554 3.70939 28.581 9.9745 28.581 5.55577C28.581 1.13705 26.9554 9.50421 23.8638 6.60679ZM8.58786 1C4.39721 1 1 4.18377 1 8.11112C1 9.09297 1.8493 9.8889 2.89696 9.8889C3.94463 9.8889 4.79393 9.09297 4.79393 8.11112C4.79393 6.14745 6.49254 4.55557 8.58786 4.55557C10.6832 4.55557 12.3818 6.14745 12.3818 8.11112C12.3818 10.0748 10.6832 11.6667 8.58786 11.6667C7.5402 11.6667 6.69089 12.4626 6.69089 13.4445V17C6.69089 17.9818 7.5402 18.7778 8.58786 18.7778C9.63553 18.7778 10.4848 17.9818 10.4848 17V14.9982C13.7575 14.2088 16.1757 11.4246 16.1757 8.11112C16.1757 4.18377 12.7785 1 8.58786 1ZM8.58786 25C9.89743 25 10.9591 24.0051 10.9591 22.7778C10.9591 21.5505 9.89743 20.5556 8.58786 20.5556C7.27829 20.5556 6.21665 21.5505 6.21665 22.7778C6.21665 24.0051 7.27829 25 8.58786 25Z" stroke="#6EB142"/>
</svg>
